<?xml version="1.0" encoding="UTF-8"?>
<svg id="Camada_2" data-name="Camada 2" xmlns="http://www.w3.org/2000/svg" viewBox="0 0 1505.58 982.66">
  <defs>
    <style>
      .cls-1 {
        fill: #fff;
      }
    </style>
  </defs>
  <g id="Camada_2-2" data-name="Camada 2">
    <g id="Camada_5" data-name="Camada 5">
      <path class="cls-1" d="M1505.58,364.2c0,195.93-159.05,364.2-364.2,364.2h0c-83.67,0-180.61,62.25-215.42,138.34l-35.83,78.33c-9.22,20.75-32.27,36.88-55.32,36.88h-232.81l230.5-497.89h308.88c50.71,0,119.86-41.49,119.86-119.86,0-62.24-50.71-119.86-119.86-119.86H248.69c-74.45,0-109.84-55.31-78.64-122.91l40.09-86.85C219.36,13.83,242.41,0,265.46,0h875.92c209.76,0,364.2,172.88,364.2,364.2h0Z"/>
    </g>
    <g id="Camada_6" data-name="Camada 6">
      <polygon class="cls-1" points="0 483.68 69.81 593.37 363.33 593.37 238.55 858.5 317.57 982.66 552.41 483.68 0 483.68"/>
    </g>
  </g>
</svg>