<?xml version="1.0" encoding="UTF-8"?>
<svg id="Camada_2" data-name="Camada 2" xmlns="http://www.w3.org/2000/svg" xmlns:xlink="http://www.w3.org/1999/xlink" viewBox="0 0 4537.95 1004.65">
  <defs>
    <style>
      .cls-1 {
        fill: none;
      }

      .cls-2 {
        fill: #263166;
      }

      .cls-3 {
        fill: #f28a18;
      }

      .cls-4 {
        clip-path: url(#clippath);
      }
    </style>
    <clipPath id="clippath">
      <rect class="cls-1" x="115.05" width="1423.5" height="1004.65"/>
    </clipPath>
  </defs>
  <g id="Camada_5" data-name="Camada 5">
    <g>
      <g>
        <path class="cls-2" d="M1888.27,66.27c32.01-5.03,76.54-9.4,139.35-9.4s109.53,13.88,138.78,37.64c27.54,21.66,46.52,56.98,46.52,100.38s-13.49,77.79-39.89,101.92c-35.14,33.06-88.24,48.93-153.12,48.93-17.98,0-34.25-1.04-46.82-4v167.42h-84.83V66.27ZM1973.1,275.28c12.19,3.34,27.81,4.58,47.78,4.58,66.04,0,107.22-29.97,107.22-82.87s-40.37-75.37-100-75.37c-26.73,0-45.48,2.19-55,4.09v149.57Z"/>
        <path class="cls-2" d="M2243.26,293.75c0-47.83-.66-79.11-2.66-108.39h73.84l2.84,65.77h2.37c17.1-49.86,58.5-73.75,96.26-73.75,8.35,0,13.29.29,20.6,1.99v79.14c-7.88-1.71-15.85-2.84-26.95-2.84-43.81,0-71.67,26.27-78.91,64.06-1.24,7.04-1.81,14.94-1.81,22.56v166.88h-85.58v-215.41Z"/>
        <path class="cls-2" d="M2796.42,343.26c0,115.18-88.95,173.87-182.96,173.87-98.9,0-177.53-64.92-177.53-166.94s74.14-172.83,184.08-172.83,176.41,70.61,176.41,165.89ZM2524.54,347.83c0,64.9,38.4,108.26,91.67,108.26s91.59-39.1,91.59-109.69c0-52.2-27.32-107.97-90.45-107.97s-92.82,53.08-92.82,109.41Z"/>
        <path class="cls-2" d="M3097.3,498.4c-19.27,8.92-57.47,18.74-103.68,18.74-109.71,0-179.92-67.85-179.92-166.36s70.45-173.4,193.69-173.4c33.98,0,67.91,7.25,89.92,16.56l-15.76,63.32c-15.22-7.61-37.47-14.47-71.14-14.47-67.86,0-109.23,44.35-108.85,103.62,0,66.49,49.26,103.81,109.21,103.81,33.02,0,56.33-7.25,74.19-14.47l12.34,62.66Z"/>
        <path class="cls-2" d="M3463.53,343.26c0,115.18-88.95,173.87-182.96,173.87-98.9,0-177.53-64.92-177.53-166.94s74.14-172.83,184.08-172.83,176.41,70.61,176.41,165.89ZM3191.65,347.83c0,64.9,38.4,108.26,91.67,108.26s91.59-39.1,91.59-109.69c0-52.2-27.32-107.97-90.45-107.97s-92.82,53.08-92.82,109.41Z"/>
        <path class="cls-2" d="M3502.32,283.33c0-37.67-1.04-70.14-2.66-97.97h74.88l4.17,52.12h2.09c13.99-24.86,51.65-60.1,112.07-60.1,57.28,0,125.89,34.5,125.89,146.04v185.74h-85.58v-175.14c0-51.17-20.46-87.82-69.77-87.82-37.59,0-62.37,26.17-71.7,50.84-2.66,6.56-3.81,16.35-3.81,24.82v187.31h-85.58v-225.83Z"/>
        <path class="cls-2" d="M3973.4,90.62v94.73h82.93v64.17h-82.93v134.55c0,39.62,8.95,63.12,44.78,63.12,15.88,0,27.67-1.9,35.09-4.09l1.72,64.64c-12.82,5.03-36.26,9.4-63.98,9.4-32.47,0-59.14-11.77-74.72-28.87-18.23-19.47-26.2-51.39-26.2-91.92v-146.83h-48.69v-64.17h48.69v-74.92l83.31-19.82Z"/>
        <path class="cls-2" d="M4288.57,509.16l-6.08-37.11h-2.09c-20.79,25.75-57.96,45.09-104.38,45.09-72.12,0-108.95-49.6-108.95-96.5,0-81.2,73.61-124.64,208.22-123.78v-4.29c0-17.13-6.83-56.41-71.53-56.13-34.57,0-72.37,11.39-95.95,26.23l-17.08-54.7c27.3-16.47,71.85-30.6,126.67-30.6,110.69,0,143.1,68.29,143.1,140.03v112.32c0,30.86,1.71,59.92,5.32,79.43h-77.25ZM4277.56,351.75c-67.82-1.15-124.8,12.53-124.8,59.49,0,30.09,21.24,45.6,50.53,45.6,37.63,0,63.32-24.09,71.79-47.39,1.9-5.89,2.48-12.55,2.48-18.24v-39.45Z"/>
        <path class="cls-2" d="M4420.84,32.93h85.58v476.23h-85.58V32.93Z"/>
      </g>
      <g>
        <path class="cls-2" d="M1939.44,635.63h-62.11v-22.25h150.98v22.25h-62.4v181.64h-26.47v-181.64Z"/>
        <path class="cls-2" d="M2111.36,616.18c13.36-2.69,32.54-4.39,50.64-4.39,27.95,0,46.37,5.32,59.08,16.78,10.07,8.93,15.99,22.81,15.99,38.76,0,26.78-17.1,44.6-38.43,51.95v.74c15.55,5.45,24.94,20.15,29.9,41.29,6.71,28.49,11.54,47.99,15.68,55.96h-27.31c-3.21-5.9-7.81-23.28-13.39-48.81-6.05-27.92-17.08-38.75-40.92-39.54h-24.92v88.35h-26.31v-201.09ZM2137.67,708.99h26.91c28.18,0,46.03-15.35,46.03-38.71,0-26.49-19.1-37.99-46.87-38.03-12.77,0-21.6,1.16-26.07,2.32v74.42Z"/>
        <path class="cls-2" d="M2440.12,721.68h-79.04v73.65h88.41v21.94h-114.88v-203.89h110.22v21.94h-83.75v64.57h79.04v21.8Z"/>
        <path class="cls-2" d="M2570.4,613.38v203.89h-26.47v-203.89h26.47Z"/>
        <path class="cls-2" d="M2676.72,817.27v-203.89h28.95l65.31,103.05c14.9,23.92,26.74,45.35,36.38,66.39l.67-.32c-2.39-27.22-2.87-52.08-2.87-83.67v-85.45h24.8v203.89h-26.75l-64.81-103.35c-14.04-22.84-27.75-46.1-37.93-68.27l-.9.32c1.57,25.84,1.94,50.41,1.94,84.11v87.18h-24.8Z"/>
        <path class="cls-2" d="M2969.35,753.19l-21.07,64.08h-27.31l69.35-203.89h31.67l69.63,203.89h-28.16l-21.84-64.08h-72.28ZM3036.3,732.6l-20.19-58.67c-4.42-13.35-7.49-25.49-10.5-37.2h-.71c-2.92,11.92-6.1,24.37-10.11,36.84l-20.09,59.03h61.6Z"/>
        <path class="cls-2" d="M3352.74,727.74c-1.58-28.32-3.43-62.74-3.25-87.94h-.83c-7.02,23.66-15.48,49.36-25.66,77.29l-36,98.9h-19.89l-33.22-97.09c-9.71-28.8-17.63-54.96-23.34-79.1h-.71c-.71,25.41-2.03,59.35-4,89.95l-5.43,87.52h-25.02l14.19-203.89h33.64l34.72,98.69c8.4,24.96,15.24,47.41,20.53,68.69h.8c5.35-20.65,12.48-43.12,21.57-68.67l36.37-98.71h33.67l12.64,203.89h-25.89l-4.91-89.53Z"/>
        <path class="cls-2" d="M3589.9,721.68h-79.04v73.65h88.41v21.94h-114.88v-203.89h110.22v21.94h-83.75v64.57h79.04v21.8Z"/>
        <path class="cls-2" d="M3693.71,817.27v-203.89h28.95l65.31,103.05c14.9,23.92,26.74,45.35,36.38,66.39l.67-.32c-2.39-27.22-2.87-52.08-2.87-83.67v-85.45h24.8v203.89h-26.75l-64.81-103.35c-14.04-22.84-27.75-46.1-37.93-68.27l-.9.32c1.57,25.84,1.94,50.41,1.94,84.11v87.18h-24.8Z"/>
        <path class="cls-2" d="M3992.16,635.63h-62.11v-22.25h150.98v22.25h-62.4v181.64h-26.47v-181.64Z"/>
        <path class="cls-2" d="M4330.29,713.28c0,69.96-42.63,107.31-94.6,107.31s-91.64-41.87-91.64-103.48,39.98-107.06,94.41-107.06,91.83,42.65,91.83,103.23ZM4171.89,716.5c0,43.63,23.69,82.67,65.22,82.67s65.32-38.41,65.32-84.73c0-40.59-21.18-82.97-64.99-82.97s-65.56,40.43-65.56,85.03Z"/>
        <path class="cls-2" d="M4421.44,785.18c11.77,7.36,28.95,13.21,47.05,13.21,26.93,0,42.76-14.07,42.76-34.71,0-18.9-11.05-30.05-38.56-40.34-33.28-11.81-53.92-29.31-53.92-57.83,0-31.74,26.38-55.29,66.09-55.29,20.7,0,36.09,4.8,44.98,9.85l-7.35,21.59c-6.5-3.86-20.14-9.68-38.5-9.68-28.01,0-38.58,16.6-38.58,30.49,0,18.93,12.4,28.27,40.55,39.14,34.59,13.57,52,30.16,52,60.06s-23.04,58.79-71.35,58.79c-19.71,0-41.21-5.95-52.09-13.3l6.92-21.97Z"/>
      </g>
    </g>
    <g class="cls-4">
      <path class="cls-2" d="M1538.2,372.78c0,200.18-162.5,372.09-372.09,372.09h0c-85.49,0-184.52,63.6-220.08,141.34l-36.61,80.03c-9.42,21.2-32.97,37.68-56.52,37.68h-237.86l235.5-508.68h315.57c51.81,0,122.46-42.39,122.46-122.46,0-63.59-51.81-122.46-122.46-122.46H254.08c-76.07,0-112.22-56.51-80.35-125.57l40.95-88.73C224.11,14.82,247.66.69,271.21.69h894.9c214.31,0,372.09,176.62,372.09,372.09Z"/>
    </g>
  </g>
  <g id="Camada_6" data-name="Camada 6">
    <polygon class="cls-3" points="0 494.86 71.32 606.92 371.21 606.92 243.72 877.8 324.45 1004.65 564.38 494.86 0 494.86"/>
  </g>
</svg>