<?xml version="1.0" encoding="UTF-8"?>
<svg id="Camada_2" data-name="Camada 2" xmlns="http://www.w3.org/2000/svg" xmlns:xlink="http://www.w3.org/1999/xlink" viewBox="0 0 4560.26 1022.53">
  <defs>
    <style>
      .cls-1 {
        fill: none;
      }

      .cls-2 {
        fill: #fff;
      }

      .cls-3 {
        fill: #f28a18;
      }

      .cls-4 {
        clip-path: url(#clippath);
      }
    </style>
    <clipPath id="clippath">
      <rect class="cls-1" x="106.23" width="1448.84" height="1022.53"/>
    </clipPath>
  </defs>
  <g id="Camada_5" data-name="Camada 5">
    <g>
      <g>
        <path class="cls-2" d="M1863.4,90.35c32.58-5.12,77.9-9.57,141.83-9.57s111.48,14.12,141.25,38.31c28.03,22.05,47.34,58,47.34,102.17s-13.73,79.17-40.6,103.73c-35.76,33.65-89.81,49.8-155.85,49.8-18.3,0-34.86-1.06-47.65-4.07v170.4h-86.34V90.35ZM1949.74,303.08c12.41,3.4,28.3,4.66,48.63,4.66,67.21,0,109.12-30.51,109.12-84.35s-41.09-76.71-101.78-76.71c-27.21,0-46.29,2.23-55.98,4.17v152.24Z"/>
        <path class="cls-2" d="M2224.71,321.87c0-48.69-.68-80.51-2.71-110.32h75.15l2.89,66.94h2.42c17.4-50.75,59.54-75.06,97.97-75.06,8.5,0,13.53.29,20.96,2.03v80.55c-8.02-1.74-16.13-2.9-27.43-2.9-44.59,0-72.95,26.74-80.31,65.2-1.26,7.17-1.84,15.21-1.84,22.96v169.85h-87.11v-219.24Z"/>
        <path class="cls-2" d="M2787.72,372.27c0,117.23-90.54,176.97-186.22,176.97-100.66,0-180.69-66.07-180.69-169.91s75.46-175.91,187.36-175.91,179.55,71.86,179.55,168.84ZM2511,376.91c0,66.06,39.08,110.19,93.31,110.19s93.22-39.8,93.22-111.65c0-53.13-27.81-109.9-92.06-109.9s-94.47,54.03-94.47,111.35Z"/>
        <path class="cls-2" d="M3093.96,530.17c-19.61,9.08-58.49,19.07-105.52,19.07-111.67,0-183.12-69.06-183.12-169.32s71.7-176.49,197.14-176.49c34.58,0,69.12,7.38,91.52,16.85l-16.04,64.45c-15.49-7.75-38.14-14.73-72.41-14.73-69.07,0-111.18,45.14-110.79,105.47,0,67.67,50.14,105.66,111.16,105.66,33.61,0,57.33-7.38,75.51-14.73l12.56,63.77Z"/>
        <path class="cls-2" d="M3466.7,372.27c0,117.23-90.54,176.97-186.22,176.97-100.66,0-180.69-66.07-180.69-169.91s75.46-175.91,187.36-175.91,179.55,71.86,179.55,168.84ZM3189.98,376.91c0,66.06,39.08,110.19,93.31,110.19s93.22-39.8,93.22-111.65c0-53.13-27.81-109.9-92.06-109.9s-94.47,54.03-94.47,111.35Z"/>
        <path class="cls-2" d="M3506.18,311.26c0-38.34-1.06-71.39-2.71-99.72h76.22l4.25,53.05h2.12c14.24-25.3,52.57-61.17,114.07-61.17,58.3,0,128.13,35.11,128.13,148.64v189.05h-87.11v-178.26c0-52.08-20.82-89.39-71.02-89.39-38.26,0-63.48,26.63-72.98,51.75-2.71,6.68-3.87,16.64-3.87,25.26v190.65h-87.11v-229.85Z"/>
        <path class="cls-2" d="M3985.65,115.13v96.42h84.41v65.31h-84.41v136.94c0,40.33,9.1,64.24,45.58,64.24,16.17,0,28.16-1.94,35.71-4.17l1.75,65.79c-13.05,5.12-36.91,9.57-65.12,9.57-33.04,0-60.19-11.98-76.05-29.38-18.56-19.82-26.67-52.3-26.67-93.55v-149.45h-49.56v-65.31h49.56v-76.25l84.79-20.17Z"/>
        <path class="cls-2" d="M4306.43,541.11l-6.19-37.77h-2.12c-21.16,26.2-58.99,45.89-106.23,45.89-73.4,0-110.89-50.48-110.89-98.22,0-82.65,74.92-126.86,211.92-125.99v-4.36c0-17.44-6.96-57.42-72.81-57.12-35.19,0-73.66,11.59-97.66,26.69l-17.38-55.67c27.79-16.76,73.12-31.14,128.92-31.14,112.66,0,145.65,69.5,145.65,142.53v114.32c0,31.41,1.74,60.99,5.42,80.84h-78.62ZM4295.23,380.91c-69.02-1.17-127.02,12.76-127.02,60.55,0,30.62,21.61,46.41,51.43,46.41,38.3,0,64.44-24.52,73.07-48.24,1.94-6,2.52-12.77,2.52-18.57v-40.16Z"/>
        <path class="cls-2" d="M4441.06,56.41h87.11v484.71h-87.11V56.41Z"/>
      </g>
      <g>
        <path class="cls-2" d="M1915.48,669.83h-63.21v-22.64h153.67v22.64h-63.51v184.87h-26.94v-184.87Z"/>
        <path class="cls-2" d="M2090.47,650.04c13.6-2.73,33.12-4.47,51.54-4.47,28.45,0,47.2,5.41,60.13,17.08,10.25,9.08,16.28,23.22,16.28,39.45,0,27.26-17.41,45.39-39.11,52.88v.75c15.82,5.55,25.39,20.51,30.43,42.02,6.83,29,11.74,48.84,15.96,56.95h-27.8c-3.26-6-7.95-23.7-13.63-49.68-6.16-28.41-17.38-39.44-41.65-40.24h-25.37v89.93h-26.78v-204.67ZM2117.25,744.5h27.39c28.68,0,46.85-15.62,46.85-39.4,0-26.96-19.44-38.66-47.71-38.71-13,0-21.98,1.18-26.53,2.36v75.75Z"/>
        <path class="cls-2" d="M2425.08,757.43h-80.45v74.96h89.98v22.33h-116.92v-207.52h112.18v22.33h-85.24v65.72h80.45v22.19Z"/>
        <path class="cls-2" d="M2557.68,647.19v207.52h-26.94v-207.52h26.94Z"/>
        <path class="cls-2" d="M2665.89,854.71v-207.52h29.47l66.47,104.88c15.17,24.34,27.22,46.15,37.03,67.57l.69-.32c-2.43-27.7-2.92-53.01-2.92-85.16v-86.97h25.24v207.52h-27.22l-65.96-105.19c-14.29-23.25-28.25-46.92-38.61-69.48l-.92.32c1.6,26.3,1.97,51.3,1.97,85.61v88.73h-25.24Z"/>
        <path class="cls-2" d="M2963.73,789.49l-21.44,65.22h-27.79l70.58-207.52h32.23l70.87,207.52h-28.66l-22.23-65.22h-73.56ZM3031.87,768.53l-20.55-59.72c-4.5-13.58-7.62-25.94-10.69-37.86h-.72c-2.97,12.13-6.21,24.81-10.29,37.5l-20.45,60.08h62.7Z"/>
        <path class="cls-2" d="M3353.94,763.59c-1.61-28.83-3.49-63.86-3.31-89.5h-.85c-7.14,24.08-15.76,50.23-26.11,78.67l-36.64,100.66h-20.24l-33.81-98.82c-9.89-29.32-17.94-55.94-23.76-80.51h-.72c-.72,25.86-2.07,60.41-4.07,91.55l-5.53,89.08h-25.46l14.45-207.52h34.24l35.33,100.44c8.55,25.41,15.51,48.26,20.9,69.91h.81c5.45-21.02,12.7-43.89,21.96-69.89l37.02-100.47h34.27l12.87,207.52h-26.35l-4.99-91.12Z"/>
        <path class="cls-2" d="M3595.33,757.43h-80.45v74.96h89.98v22.33h-116.92v-207.52h112.18v22.33h-85.24v65.72h80.45v22.19Z"/>
        <path class="cls-2" d="M3700.98,854.71v-207.52h29.47l66.47,104.88c15.17,24.34,27.22,46.15,37.03,67.57l.69-.32c-2.43-27.7-2.92-53.01-2.92-85.16v-86.97h25.24v207.52h-27.22l-65.96-105.19c-14.29-23.25-28.25-46.92-38.61-69.48l-.92.32c1.6,26.3,1.97,51.3,1.97,85.61v88.73h-25.24Z"/>
        <path class="cls-2" d="M4004.75,669.83h-63.21v-22.64h153.67v22.64h-63.51v184.87h-26.94v-184.87Z"/>
        <path class="cls-2" d="M4348.89,748.87c0,71.2-43.39,109.22-96.29,109.22s-93.27-42.61-93.27-105.32,40.69-108.97,96.09-108.97,93.47,43.41,93.47,105.07ZM4187.68,752.15c0,44.41,24.11,84.14,66.39,84.14s66.48-39.09,66.48-86.24c0-41.31-21.55-84.44-66.15-84.44s-66.72,41.15-66.72,86.54Z"/>
        <path class="cls-2" d="M4441.67,822.05c11.98,7.49,29.47,13.45,47.88,13.45,27.41,0,43.52-14.32,43.52-35.33,0-19.24-11.25-30.58-39.25-41.06-33.87-12.02-54.88-29.83-54.88-58.86,0-32.3,26.85-56.28,67.27-56.28,21.07,0,36.73,4.89,45.78,10.03l-7.48,21.97c-6.61-3.93-20.5-9.85-39.19-9.85-28.5,0-39.27,16.89-39.27,31.03,0,19.26,12.62,28.77,41.27,39.84,35.2,13.81,52.93,30.7,52.93,61.13s-23.45,59.84-72.62,59.84c-20.07,0-41.94-6.06-53.02-13.54l7.05-22.36Z"/>
      </g>
    </g>
    <g class="cls-4">
      <path class="cls-3" d="M1554.72,379.42c0,203.74-165.39,378.71-378.72,378.71h0c-87.01,0-187.81,64.74-224,143.86l-37.26,81.45c-9.59,21.57-33.56,38.35-57.53,38.35h-242.09l239.69-517.74h321.19c52.73,0,124.64-43.14,124.64-124.64,0-64.72-52.73-124.64-124.64-124.64H247.74c-77.42,0-114.22-57.51-81.78-127.81l41.68-90.31C217.24,15.09,241.21.7,265.18.7h910.83c218.12,0,378.72,179.77,378.72,378.71Z"/>
    </g>
  </g>
  <g id="Camada_6" data-name="Camada 6">
    <polygon class="cls-2" points="0 503.66 72.59 617.72 377.81 617.72 248.06 893.42 330.22 1022.53 574.43 503.66 0 503.66"/>
  </g>
</svg>