<?xml version="1.0" encoding="UTF-8"?>
<svg id="Camada_2" data-name="Camada 2" xmlns="http://www.w3.org/2000/svg" xmlns:xlink="http://www.w3.org/1999/xlink" viewBox="0 0 4547.65 1019.7">
  <defs>
    <style>
      .cls-1 {
        fill: none;
      }

      .cls-2 {
        fill: #263166;
      }

      .cls-3 {
        fill: #f28a18;
      }

      .cls-4 {
        clip-path: url(#clippath);
      }
    </style>
    <clipPath id="clippath">
      <rect class="cls-1" x="105.94" width="1444.84" height="1019.7"/>
    </clipPath>
  </defs>
  <g id="Camada_5" data-name="Camada 5">
    <g>
      <g>
        <path class="cls-2" d="M1858.25,90.1c32.49-5.11,77.69-9.54,141.44-9.54s111.17,14.08,140.86,38.2c27.95,21.99,47.21,57.84,47.21,101.88s-13.69,78.95-40.48,103.44c-35.66,33.56-89.57,49.67-155.41,49.67-18.25,0-34.76-1.06-47.52-4.06v169.93h-86.1V90.1ZM1944.35,302.24c12.37,3.39,28.22,4.64,48.5,4.64,67.03,0,108.82-30.42,108.82-84.11s-40.98-76.5-101.5-76.5c-27.13,0-46.16,2.22-55.82,4.15v151.81Z"/>
        <path class="cls-2" d="M2218.56,320.98c0-48.55-.67-80.29-2.7-110.02h74.95l2.89,66.75h2.41c17.36-50.61,59.38-74.85,97.7-74.85,8.48,0,13.49.29,20.91,2.02v80.32c-8-1.73-16.09-2.89-27.35-2.89-44.46,0-72.75,26.66-80.09,65.02-1.26,7.15-1.84,15.17-1.84,22.89v169.38h-86.87v-218.64Z"/>
        <path class="cls-2" d="M2780.02,371.24c0,116.91-90.29,176.48-185.7,176.48-100.38,0-180.19-65.89-180.19-169.44s75.25-175.42,186.84-175.42,179.05,71.66,179.05,168.38ZM2504.06,375.87c0,65.87,38.97,109.88,93.05,109.88s92.97-39.69,92.97-111.34c0-52.98-27.73-109.59-91.8-109.59s-94.21,53.88-94.21,111.05Z"/>
        <path class="cls-2" d="M3085.41,528.7c-19.56,9.06-58.33,19.02-105.23,19.02-111.36,0-182.62-68.87-182.62-168.86s71.5-176,196.6-176c34.48,0,68.93,7.35,91.26,16.81l-15.99,64.27c-15.45-7.73-38.04-14.69-72.21-14.69-68.88,0-110.87,45.02-110.49,105.18,0,67.48,50,105.37,110.85,105.37,33.52,0,57.17-7.36,75.3-14.69l12.52,63.6Z"/>
        <path class="cls-2" d="M3457.12,371.24c0,116.91-90.29,176.48-185.7,176.48-100.38,0-180.19-65.89-180.19-169.44s75.25-175.42,186.84-175.42,179.05,71.66,179.05,168.38ZM3181.16,375.87c0,65.87,38.97,109.88,93.05,109.88s92.97-39.69,92.97-111.34c0-52.98-27.73-109.59-91.8-109.59s-94.21,53.88-94.21,111.05Z"/>
        <path class="cls-2" d="M3496.49,310.4c0-38.24-1.06-71.19-2.7-99.44h76l4.24,52.9h2.12c14.2-25.23,52.42-61,113.75-61,58.13,0,127.78,35.02,127.78,148.23v188.53h-86.87v-177.77c0-51.93-20.76-89.14-70.82-89.14-38.15,0-63.3,26.56-72.77,51.6-2.7,6.66-3.86,16.6-3.86,25.19v190.12h-86.87v-229.21Z"/>
        <path class="cls-2" d="M3974.63,114.81v96.15h84.17v65.13h-84.17v136.56c0,40.21,9.08,64.06,45.45,64.06,16.12,0,28.09-1.93,35.62-4.15l1.75,65.61c-13.01,5.11-36.81,9.54-64.94,9.54-32.95,0-60.03-11.94-75.84-29.3-18.51-19.76-26.6-52.16-26.6-93.29v-149.03h-49.42v-65.13h49.42v-76.04l84.56-20.12Z"/>
        <path class="cls-2" d="M4294.53,539.62l-6.17-37.66h-2.12c-21.1,26.13-58.83,45.76-105.94,45.76-73.2,0-110.59-50.34-110.59-97.95,0-82.42,74.71-126.51,211.34-125.64v-4.35c0-17.39-6.94-57.26-72.6-56.97-35.09,0-73.46,11.56-97.39,26.62l-17.33-55.52c27.71-16.71,72.92-31.05,128.57-31.05,112.35,0,145.24,69.31,145.24,142.13v114.01c0,31.32,1.73,60.82,5.4,80.62h-78.4ZM4283.35,379.86c-68.83-1.16-126.67,12.72-126.67,60.38,0,30.54,21.55,46.29,51.29,46.29,38.19,0,64.27-24.45,72.87-48.1,1.93-5.98,2.52-12.73,2.52-18.52v-40.05Z"/>
        <path class="cls-2" d="M4428.78,56.25h86.87v483.37h-86.87V56.25Z"/>
      </g>
      <g>
        <path class="cls-2" d="M1910.19,667.98h-63.04v-22.58h153.24v22.58h-63.34v184.36h-26.87v-184.36Z"/>
        <path class="cls-2" d="M2084.69,648.24c13.57-2.73,33.03-4.45,51.4-4.45,28.37,0,47.07,5.4,59.97,17.03,10.22,9.06,16.23,23.15,16.23,39.34,0,27.19-17.36,45.26-39,52.73v.75c15.78,5.54,25.32,20.46,30.35,41.91,6.81,28.92,11.71,48.71,15.91,56.8h-27.72c-3.26-5.99-7.93-23.63-13.6-49.55-6.14-28.34-17.33-39.33-41.54-40.13h-25.3v89.68h-26.71v-204.1ZM2111.39,742.44h27.31c28.61,0,46.72-15.58,46.72-39.29,0-26.88-19.39-38.56-47.58-38.6-12.96,0-21.92,1.18-26.46,2.35v75.54Z"/>
        <path class="cls-2" d="M2418.37,755.33h-80.23v74.75h89.73v22.26h-116.6v-206.94h111.87v22.26h-85v65.54h80.23v22.13Z"/>
        <path class="cls-2" d="M2550.6,645.4v206.94h-26.87v-206.94h26.87Z"/>
        <path class="cls-2" d="M2658.52,852.35v-206.94h29.39l66.29,104.59c15.12,24.27,27.14,46.03,36.92,67.39l.68-.32c-2.43-27.62-2.91-52.86-2.91-84.92v-86.73h25.17v206.94h-27.15l-65.78-104.9c-14.25-23.19-28.17-46.79-38.5-69.29l-.91.32c1.6,26.22,1.97,51.16,1.97,85.37v88.49h-25.17Z"/>
        <path class="cls-2" d="M2955.53,787.31l-21.38,65.04h-27.72l70.38-206.94h32.14l70.68,206.94h-28.58l-22.17-65.04h-73.36ZM3023.49,766.41l-20.49-59.55c-4.49-13.55-7.6-25.87-10.66-37.75h-.72c-2.96,12.1-6.19,24.74-10.26,37.39l-20.39,59.91h62.52Z"/>
        <path class="cls-2" d="M3344.67,761.48c-1.6-28.75-3.48-63.68-3.3-89.26h-.84c-7.12,24.01-15.71,50.09-26.04,78.45l-36.54,100.38h-20.18l-33.72-98.54c-9.86-29.24-17.89-55.79-23.69-80.29h-.72c-.72,25.79-2.06,60.24-4.06,91.3l-5.51,88.83h-25.39l14.41-206.94h34.14l35.24,100.16c8.53,25.34,15.47,48.12,20.84,69.72h.81c5.43-20.96,12.66-43.77,21.9-69.7l36.92-100.19h34.17l12.83,206.94h-26.28l-4.98-90.87Z"/>
        <path class="cls-2" d="M3585.39,755.33h-80.23v74.75h89.73v22.26h-116.6v-206.94h111.87v22.26h-85v65.54h80.23v22.13Z"/>
        <path class="cls-2" d="M3690.75,852.35v-206.94h29.39l66.29,104.59c15.12,24.27,27.14,46.03,36.92,67.39l.68-.32c-2.43-27.62-2.91-52.86-2.91-84.92v-86.73h25.17v206.94h-27.15l-65.78-104.9c-14.25-23.19-28.17-46.79-38.5-69.29l-.91.32c1.6,26.22,1.97,51.16,1.97,85.37v88.49h-25.17Z"/>
        <path class="cls-2" d="M3993.68,667.98h-63.04v-22.58h153.24v22.58h-63.34v184.36h-26.87v-184.36Z"/>
        <path class="cls-2" d="M4336.87,746.8c0,71-43.27,108.92-96.02,108.92s-93.02-42.49-93.02-105.03,40.58-108.67,95.83-108.67,93.21,43.29,93.21,104.78ZM4176.1,750.07c0,44.28,24.05,83.91,66.2,83.91s66.3-38.99,66.3-86c0-41.2-21.49-84.21-65.96-84.21s-66.54,41.04-66.54,86.3Z"/>
        <path class="cls-2" d="M4429.39,819.77c11.94,7.47,29.39,13.41,47.75,13.41,27.33,0,43.4-14.28,43.4-35.23,0-19.19-11.22-30.5-39.14-40.95-33.77-11.98-54.73-29.75-54.73-58.7,0-32.21,26.78-56.12,67.08-56.12,21.01,0,36.63,4.87,45.65,10l-7.46,21.91c-6.6-3.92-20.44-9.82-39.08-9.82-28.42,0-39.16,16.84-39.16,30.95,0,19.21,12.59,28.69,41.15,39.73,35.1,13.77,52.78,30.62,52.78,60.96s-23.39,59.67-72.42,59.67c-20.01,0-41.83-6.04-52.87-13.5l7.03-22.29Z"/>
      </g>
    </g>
    <g class="cls-4">
      <path class="cls-3" d="M1550.42,378.37c0,203.18-164.93,377.67-377.67,377.67h0c-86.77,0-187.29,64.56-223.38,143.46l-37.16,81.23c-9.56,21.51-33.46,38.25-57.37,38.25h-241.42l239.03-516.31h320.3c52.59,0,124.3-43.02,124.3-124.29,0-64.54-52.59-124.3-124.3-124.3H247.06c-77.21,0-113.9-57.35-81.55-127.46l41.57-90.06C216.64,15.04,240.54.7,264.44.7h908.31c217.52,0,377.67,179.27,377.67,377.67Z"/>
    </g>
  </g>
  <g id="Camada_6" data-name="Camada 6">
    <polygon class="cls-2" points="0 502.27 72.39 616.01 376.77 616.01 247.37 890.95 329.31 1019.7 572.84 502.27 0 502.27"/>
  </g>
</svg>