<?xml version="1.0" encoding="UTF-8"?>
<svg id="Camada_2" data-name="Camada 2" xmlns="http://www.w3.org/2000/svg" xmlns:xlink="http://www.w3.org/1999/xlink" viewBox="0 0 4441.71 983.34">
  <defs>
    <style>
      .cls-1 {
        fill: none;
      }

      .cls-2 {
        fill: #383838;
      }

      .cls-3 {
        clip-path: url(#clippath);
      }
    </style>
    <clipPath id="clippath">
      <rect class="cls-1" x="112.61" width="1393.31" height="983.34"/>
    </clipPath>
  </defs>
  <g id="Camada_5" data-name="Camada 5">
    <g>
      <g>
        <path class="cls-2" d="M1848.22,64.87c31.33-4.93,74.92-9.2,136.4-9.2s107.21,13.58,135.84,36.84c26.95,21.2,45.53,55.78,45.53,98.25s-13.2,76.14-39.04,99.75c-34.39,32.36-86.37,47.89-149.87,47.89-17.6,0-33.52-1.02-45.83-3.92v163.87h-83.03V64.87ZM1931.25,269.44c11.93,3.27,27.22,4.48,46.77,4.48,64.64,0,104.94-29.34,104.94-81.11s-39.52-73.77-97.88-73.77c-26.16,0-44.51,2.14-53.83,4.01v146.4Z"/>
        <path class="cls-2" d="M2195.68,287.52c0-46.82-.65-77.43-2.6-106.09h72.27l2.78,64.37h2.32c16.74-48.81,57.26-72.18,94.22-72.18,8.17,0,13.01.28,20.16,1.95v77.46c-7.71-1.67-15.51-2.78-26.38-2.78-42.88,0-70.15,25.71-77.23,62.71-1.21,6.89-1.77,14.62-1.77,22.08v163.34h-83.77v-210.84Z"/>
        <path class="cls-2" d="M2737.11,335.98c0,112.74-87.07,170.19-179.08,170.19-96.8,0-173.77-63.54-173.77-163.39s72.56-169.16,180.18-169.16,172.67,69.11,172.67,162.37ZM2471,340.45c0,63.53,37.58,105.96,89.73,105.96s89.65-38.27,89.65-107.37c0-51.09-26.75-105.68-88.53-105.68s-90.85,51.96-90.85,107.09Z"/>
        <path class="cls-2" d="M3031.61,487.83c-18.86,8.73-56.25,18.34-101.48,18.34-107.39,0-176.1-66.41-176.1-162.83s68.95-169.73,189.58-169.73c33.25,0,66.47,7.09,88.01,16.21l-15.42,61.98c-14.9-7.45-36.68-14.16-69.63-14.16-66.42,0-106.92,43.41-106.55,101.43,0,65.08,48.22,101.61,106.9,101.61,32.32,0,55.13-7.09,72.62-14.16l12.08,61.33Z"/>
        <path class="cls-2" d="M3390.07,335.98c0,112.74-87.07,170.19-179.08,170.19-96.8,0-173.77-63.54-173.77-163.39s72.56-169.16,180.18-169.16,172.67,69.11,172.67,162.37ZM3123.96,340.45c0,63.53,37.58,105.96,89.73,105.96s89.65-38.27,89.65-107.37c0-51.09-26.75-105.68-88.53-105.68s-90.85,51.96-90.85,107.09Z"/>
        <path class="cls-2" d="M3428.04,277.32c0-36.88-1.02-68.65-2.6-95.89h73.29l4.09,51.01h2.04c13.69-24.33,50.55-58.82,109.69-58.82,56.06,0,123.22,33.77,123.22,142.94v181.8h-83.77v-171.43c0-50.08-20.02-85.96-68.3-85.96-36.79,0-61.04,25.61-70.18,49.76-2.6,6.42-3.73,16.01-3.73,24.29v183.34h-83.77v-221.04Z"/>
        <path class="cls-2" d="M3889.13,88.7v92.73h81.17v62.81h-81.17v131.69c0,38.78,8.76,61.78,43.83,61.78,15.55,0,27.08-1.86,34.35-4.01l1.68,63.27c-12.55,4.93-35.49,9.2-62.63,9.2-31.78,0-57.89-11.52-73.13-28.25-17.85-19.06-25.65-50.3-25.65-89.97v-143.72h-47.66v-62.81h47.66v-73.33l81.54-19.4Z"/>
        <path class="cls-2" d="M4197.61,498.36l-5.95-36.32h-2.04c-20.35,25.2-56.73,44.13-102.16,44.13-70.59,0-106.64-48.55-106.64-94.46,0-79.48,72.05-122,203.8-121.16v-4.2c0-16.77-6.69-55.22-70.01-54.94-33.84,0-70.84,11.15-93.92,25.67l-16.72-53.54c26.72-16.12,70.32-29.95,123.98-29.95,108.34,0,140.06,66.84,140.06,137.06v109.94c0,30.21,1.67,58.65,5.21,77.74h-75.61ZM4186.84,344.29c-66.38-1.12-122.16,12.27-122.16,58.23,0,29.45,20.78,44.63,49.46,44.63,36.83,0,61.97-23.58,70.27-46.39,1.86-5.77,2.43-12.28,2.43-17.86v-38.62Z"/>
        <path class="cls-2" d="M4327.08,32.23h83.77v466.13h-83.77V32.23Z"/>
      </g>
      <g>
        <path class="cls-2" d="M1898.31,622.14h-60.79v-21.77h147.78v21.77h-61.08v177.79h-25.91v-177.79Z"/>
        <path class="cls-2" d="M2066.58,603.11c13.08-2.63,31.85-4.29,49.57-4.29,27.36,0,45.39,5.2,57.83,16.43,9.86,8.74,15.65,22.33,15.65,37.93,0,26.22-16.74,43.65-37.61,50.85v.73c15.22,5.34,24.42,19.73,29.26,40.41,6.57,27.89,11.29,46.97,15.35,54.77h-26.73c-3.14-5.77-7.65-22.79-13.11-47.78-5.92-27.32-16.72-37.93-40.05-38.7h-24.39v86.48h-25.75v-196.82ZM2092.34,693.95h26.34c27.59,0,45.06-15.02,45.06-37.89,0-25.93-18.7-37.18-45.88-37.22-12.5,0-21.14,1.14-25.51,2.27v72.85Z"/>
        <path class="cls-2" d="M2388.37,706.38h-77.37v72.08h86.53v21.47h-112.44v-199.56h107.88v21.47h-81.97v63.2h77.37v21.34Z"/>
        <path class="cls-2" d="M2515.88,600.37v199.56h-25.91v-199.56h25.91Z"/>
        <path class="cls-2" d="M2619.95,799.93v-199.56h28.34l63.92,100.86c14.59,23.41,26.18,44.39,35.61,64.98l.66-.31c-2.34-26.64-2.81-50.97-2.81-81.89v-83.64h24.27v199.56h-26.18l-63.43-101.16c-13.74-22.36-27.16-45.12-37.13-66.82l-.88.31c1.54,25.29,1.9,49.34,1.9,82.33v85.33h-24.27Z"/>
        <path class="cls-2" d="M2906.37,737.21l-20.62,62.72h-26.73l67.87-199.56h31l68.16,199.56h-27.56l-21.38-62.72h-70.74ZM2971.91,717.06l-19.76-57.43c-4.33-13.06-7.33-24.95-10.28-36.41h-.69c-2.86,11.67-5.97,23.85-9.9,36.06l-19.66,57.78h60.29Z"/>
        <path class="cls-2" d="M3281.63,712.3c-1.55-27.72-3.36-61.41-3.18-86.07h-.81c-6.87,23.16-15.15,48.31-25.11,75.65l-35.24,96.8h-19.46l-32.51-95.03c-9.51-28.19-17.25-53.8-22.85-77.43h-.69c-.7,24.87-1.99,58.09-3.91,88.04l-5.31,85.66h-24.48l13.89-199.56h32.93l33.98,96.59c8.22,24.43,14.92,46.41,20.1,67.23h.78c5.24-20.21,12.21-42.2,21.11-67.21l35.6-96.62h32.95l12.37,199.56h-25.34l-4.8-87.63Z"/>
        <path class="cls-2" d="M3513.76,706.38h-77.37v72.08h86.53v21.47h-112.44v-199.56h107.88v21.47h-81.97v63.2h77.37v21.34Z"/>
        <path class="cls-2" d="M3615.37,799.93v-199.56h28.34l63.92,100.86c14.58,23.41,26.18,44.39,35.61,64.98l.66-.31c-2.34-26.64-2.81-50.97-2.81-81.89v-83.64h24.27v199.56h-26.18l-63.43-101.16c-13.74-22.36-27.16-45.12-37.13-66.82l-.88.31c1.54,25.29,1.9,49.34,1.9,82.33v85.33h-24.27Z"/>
        <path class="cls-2" d="M3907.5,622.14h-60.79v-21.77h147.78v21.77h-61.08v177.79h-25.91v-177.79Z"/>
        <path class="cls-2" d="M4238.45,698.15c0,68.47-41.72,105.04-92.59,105.04s-89.7-40.98-89.7-101.28,39.13-104.79,92.41-104.79,89.89,41.75,89.89,101.04ZM4083.41,701.3c0,42.71,23.19,80.92,63.84,80.92s63.93-37.6,63.93-82.94c0-39.73-20.73-81.21-63.61-81.21s-64.17,39.58-64.17,83.23Z"/>
        <path class="cls-2" d="M4327.66,768.52c11.52,7.21,28.34,12.93,46.05,12.93,26.36,0,41.86-13.77,41.86-33.98,0-18.5-10.82-29.41-37.74-39.49-32.57-11.56-52.77-28.69-52.77-56.61,0-31.06,25.82-54.12,64.69-54.12,20.26,0,35.32,4.7,44.03,9.65l-7.19,21.13c-6.36-3.78-19.72-9.47-37.68-9.47-27.41,0-37.77,16.24-37.77,29.84,0,18.52,12.14,27.67,39.69,38.31,33.85,13.28,50.9,29.52,50.9,58.78s-22.55,57.54-69.83,57.54c-19.3,0-40.34-5.82-50.99-13.02l6.78-21.5Z"/>
      </g>
    </g>
    <g class="cls-3">
      <path class="cls-2" d="M1505.58,364.88c0,195.93-159.05,364.2-364.2,364.2h0c-83.67,0-180.61,62.25-215.42,138.34l-35.83,78.33c-9.22,20.75-32.27,36.88-55.32,36.88h-232.81l230.5-497.89h308.88c50.71,0,119.86-41.49,119.86-119.86,0-62.24-50.71-119.86-119.86-119.86H248.69c-74.45,0-109.84-55.31-78.64-122.91l40.09-86.85C219.36,14.51,242.41.68,265.46.68h875.92c209.76,0,364.2,172.88,364.2,364.2Z"/>
    </g>
  </g>
  <g id="Camada_6" data-name="Camada 6">
    <polygon class="cls-2" points="0 484.36 69.81 594.05 363.33 594.05 238.55 859.18 317.57 983.34 552.41 484.36 0 484.36"/>
  </g>
</svg>