<?xml version="1.0" encoding="UTF-8"?>
<svg id="Camada_2" xmlns="http://www.w3.org/2000/svg" xmlns:xlink="http://www.w3.org/1999/xlink" version="1.1" viewBox="0 0 1000 1000">
  <!-- Generator: Adobe Illustrator 29.6.0, SVG Export Plug-In . SVG Version: 2.1.1 Build 207)  -->
  <defs>
    <style>
      .st0 {
        fill: none;
      }

      .st1 {
        fill: #263166;
      }

      .st2 {
        clip-path: url(#clippath-1);
      }

      .st3 {
        fill: #fff;
      }

      .st4 {
        fill: #f28a18;
      }

      .st5 {
        clip-path: url(#clippath);
      }
    </style>
    <clipPath id="clippath">
      <rect class="st0" width="1000" height="1000"/>
    </clipPath>
    <clipPath id="clippath-1">
      <rect class="st0" x="133.1" y="218.9" width="796.3" height="562"/>
    </clipPath>
  </defs>
  <g class="st5">
    <g>
      <rect class="st3" width="1000" height="1000"/>
      <g>
        <g id="Camada_5">
          <g class="st2">
            <path class="st1" d="M929.2,427.4c0,112-90.9,208.1-208.1,208.1h0c-47.8,0-103.2,35.6-123.1,79.1l-20.5,44.8c-5.3,11.9-18.4,21.1-31.6,21.1h-133.1l131.7-284.5h176.5c29,0,68.5-23.7,68.5-68.5s-29-68.5-68.5-68.5H210.9c-42.6,0-62.8-31.6-44.9-70.2l22.9-49.6c5.3-11.9,18.4-19.8,31.6-19.8h500.6c119.9,0,208.1,98.8,208.1,208.1Z"/>
          </g>
        </g>
        <g id="Camada_6">
          <polygon class="st4" points="68.7 495.7 108.6 558.4 276.4 558.4 205.1 709.9 250.2 780.9 384.4 495.7 68.7 495.7"/>
        </g>
      </g>
    </g>
  </g>
</svg>